<svg xmlns="http://www.w3.org/2000/svg" width="440" height="480" viewBox="0 0 440 480"><title>at</title><path d="M213 396q24 0 48-7t42-17l-20-32q-10 8-28 14t-39 6q-50-1-83-34-34-33-35-84 1-51 35-84t88-34q50 1 85 30t36 74q0 22-9 36-9 15-23 15-10 0-17-7t-7-18v-74h-32v19q-8-11-21-17t-27-6q-27 1-45 20-17 19-18 48 1 30 19 50 17 19 45 20 15 0 29-7 13-7 22-19 9 12 22 19 14 8 30 8 29-1 48-26t20-63q-2-59-46-98-45-39-111-40-70 2-114 45T62 241q2 67 45 110t106 45m-33-152q0-15 10-25t25-10q16 0 26 10 11 10 11 25 0 16-11 26-11 11-27 11-15 0-24-11-10-10-10-26"/></svg>