<!-- Icon from Microns by Stephen Hutchings, licensed under CC BY-SA 3.0. -->
<svg xmlns="http://www.w3.org/2000/svg" width="460" height="480" viewBox="0 0 460 480"><title>audio-description</title><path d="M230 420q44-1 86-29t64-71q-22-43-64-71t-86-29q-43 1-85 29t-65 71q23 43 65 71t85 29M70 110l30 30q28-28 61-40 34-12 69-12 36 0 69 12 34 12 61 40l30-30q-34-34-75-49t-85-15q-43 0-84 15-42 15-76 49m60 60 30 30q15-15 33-22 18-6 37-6t37 6q19 7 33 22l30-30q-21-21-47-31-26-9-53-9t-53 9q-26 10-47 31m40 150q1-26 17-43 17-16 43-17 26 1 43 17 16 17 17 43-1 26-17 43-17 16-43 17-26-1-43-17-16-17-17-43m30 0q0 13 9 21 8 9 21 9t21-9q9-8 9-21t-9-21q-8-9-21-9t-21 9q-9 8-9 21"/></svg>