<svg xmlns="http://www.w3.org/2000/svg" width="480" height="480" viewBox="0 0 480 480"><title>captions</title><path d="M60 400h360q8 0 14-6t6-14V100q0-8-6-14t-14-6H60q-8 0-14 6t-6 14v280q0 8 6 14t14 6m40-110V190q1-24 17-39 17-15 43-16 26 1 43 16 16 15 17 39v30h-40v-29q0-7-6-13-6-7-14-7t-14 7q-6 6-6 13v99q0 6 6 12 6 7 14 7t14-7q6-6 6-12v-30h40v30q-1 24-17 39-17 15-43 16-26-1-43-16-16-15-17-39m160 0V190q1-24 17-39 17-15 43-16 26 1 43 16 16 15 17 39v30h-40v-29q0-7-6-13-6-7-14-7t-14 7q-6 6-6 13v99q0 6 6 12 6 7 14 7t14-7q6-6 6-12v-30h40v30q-1 24-17 39-17 15-43 16-26-1-43-16-16-15-17-39"/></svg>