<!-- Icon from Microns by Stephen Hutchings, licensed under CC BY-SA 3.0. -->
<svg xmlns="http://www.w3.org/2000/svg" width="480" height="480" viewBox="0 0 480 480"><title>drive</title><path d="M120 400h240q35-1 57-23t23-57V160q-1-35-23-57t-57-23H120q-35 1-57 23t-23 57v160q1 35 23 57t57 23m-40-80v-90q9 5 19 7 10 3 21 3h240q11 0 21-3 10-2 19-7v90q0 17-12 28-11 12-28 12H120q-17 0-28-12-12-11-12-28m0-160q0-17 12-28 11-12 28-12h240q17 0 28 12 12 11 12 28t-12 28q-11 12-28 12H120q-17 0-28-12-12-11-12-28m40 160h120v-40H120zm200 0h40v-40h-40z"/></svg>