<!-- Icon from Microns by Stephen Hutchings, licensed under CC BY-SA 4.0. -->
<svg xmlns="http://www.w3.org/2000/svg" width="480" height="480" viewBox="0 0 480 480"><title>group</title><path d="M60 310v30h160v-30q-1-26-17-43-17-16-43-17h-40q-26 1-43 17-16 17-17 43m10-160q1 30 20 50 20 19 50 20 30-1 50-20 19-20 20-50-1-30-20-50-20-19-50-20-30 1-50 20-19 20-20 50m190 250h160v-30q-1-26-17-43-17-16-43-17h-40q-26 1-43 17-16 17-17 43zm10-190q1 30 20 50 20 19 50 20 30-1 50-20 19-20 20-50-1-30-20-50-20-19-50-20-30 1-50 20-19 20-20 50"/></svg>