<!-- Icon from Microns by Stephen Hutchings, licensed under CC BY-SA 3.0. -->
<svg xmlns="http://www.w3.org/2000/svg" width="510" height="480" viewBox="0 0 510 480"><title>hide</title><path d="M250 375q22 0 41-4 19-5 37-13l62 62 30-30L90 60 60 90l64 64q-22 19-39 42-18 23-25 44 22 58 76 96 53 38 114 39m-90-135q0-11 2-21 3-10 8-19l31 31q-1 4-1 9 1 21 15 35t35 15q5 0 9-1l31 31q-9 5-19 7-10 3-21 3-38-1-64-26-25-26-26-64m42-128 38 38h10q38 1 64 26 25 26 26 64v10l57 57q12-14 23-31t20-36q-30-59-78-96-48-38-112-39-25 0-48 7"/></svg>