<!-- Icon from Microns by Stephen Hutchings, licensed under CC BY-SA 4.0. -->
<svg xmlns="http://www.w3.org/2000/svg" width="480" height="480" viewBox="0 0 480 480"><title>link</title><path d="M340 290h40q26-1 43-17 16-17 17-43v-60q-1-26-17-43-17-16-43-17H240q-26 1-43 17-16 17-17 43v79q0 18 11 29 11 12 29 12V170q0-8 6-14t14-6h140q8 0 14 6t6 14v60q0 8-6 14t-14 6h-40zM40 310q1 26 17 43 17 16 43 17h140q26-1 43-17 16-17 17-43v-79q0-18-11-29-11-12-29-12v120q0 8-6 14t-14 6H100q-8 0-14-6t-6-14v-60q0-8 6-14t14-6h40v-40h-40q-26 1-43 17-16 17-17 43z"/></svg>