<!-- Icon from Microns by Stephen Hutchings, licensed under CC BY-SA 4.0. -->
<svg xmlns="http://www.w3.org/2000/svg" width="480" height="480" viewBox="0 0 480 480"><title>share</title><path d="M300 120v3l-134 78q-8-10-20-15-12-6-26-6-26 1-43 17-16 17-17 43 1 26 17 43 17 16 43 17 14 0 26-6 12-5 20-15l134 78v3q1 26 17 43 17 16 43 17 26-1 43-17 16-17 17-43-1-26-17-43-17-16-43-17-14 0-25 5t-19 14l-136-79 136-79q8 9 19 14t25 5q26-1 43-17 16-17 17-43-1-26-17-43-17-16-43-17-26 1-43 17-16 17-17 43"/></svg>