<!-- Icon from Microns by Stephen Hutchings, licensed under CC BY-SA 3.0. -->
<svg xmlns="http://www.w3.org/2000/svg" width="440" height="480" viewBox="0 0 440 480"><title>strikeout</title><path d="M220 390q46-1 73-26 26-24 27-60 0-14-4-25t-12-19h76v-40H222q-19-10-36-22-18-11-19-31 0-17 14-27 13-10 35-10 25 0 41 12 15 12 16 33h40q-1-39-27-62-26-22-69-23-40 0-65 21-24 21-25 56 0 18 7 31 7 12 17 22H60v40h180q18 7 29 18 11 10 11 25 0 18-16 32t-43 15q-26 0-42-14t-16-36h-43q1 40 28 64 28 25 72 26"/></svg>