<!-- Icon from Microns by Stephen Hutchings, licensed under CC BY-SA 4.0. -->
<svg xmlns="http://www.w3.org/2000/svg" width="500" height="480" viewBox="0 0 500 480"><title>wifi</title><path d="m30 160 30 30q40-40 89-59t101-19 101 19 89 59l30-30q-46-46-103-68T250 70 134 92q-57 22-104 68m60 60 30 30q28-28 61-41 34-13 69-13 36 0 69 13 34 13 61 41l30-30q-34-34-75-50t-85-16q-43 0-84 16-42 16-76 50m60 60 30 30q15-15 33-23 18-7 37-7t37 7q19 8 33 23l30-30q-21-21-47-32-26-10-53-10t-53 10q-26 11-47 32m60 60 40 40 40-40q-8-8-18-13-11-5-22-5t-21 5q-11 5-19 13"/></svg>